<?xml version="1.0" encoding="UTF-8" standalone="no"?>
<svg xmlns="http://www.w3.org/2000/svg" xml:space="preserve" width="13px" height="13px" version="1.1" viewBox="0 0 256 256"
  xmlns:xlink="http://www.w3.org/1999/xlink">
  <defs>
    <linearGradient id="bgGradient" x1="0%" y1="0%" x2="100%" y2="100%">
      <stop offset="0%" stop-color="#2C3E50"/>
      <stop offset="100%" stop-color="#1A2639"/>
    </linearGradient>
    <linearGradient id="highlightGradient" x1="0%" y1="0%" x2="100%" y2="100%">
      <stop offset="0%" stop-color="#3498DB"/>
      <stop offset="100%" stop-color="#2980B9"/>
    </linearGradient>
  </defs>
  
  <!-- Background -->
  <rect x="16" y="16" width="224" height="224" rx="32" ry="32" fill="url(#bgGradient)"/>
  
  <!-- Code bracket left -->
  <path d="M70 80 L50 128 L70 176" stroke="#E0E0E0" stroke-width="12" stroke-linecap="round" stroke-linejoin="round" fill="none"/>
  
  <!-- Code bracket right -->
  <path d="M186 80 L206 128 L186 176" stroke="#E0E0E0" stroke-width="12" stroke-linecap="round" stroke-linejoin="round" fill="none"/>
  
  <!-- Center brain/circuit symbol -->
  <circle cx="128" cy="120" r="36" fill="url(#highlightGradient)" opacity="0.9"/>
  
  <!-- Neural network connections -->
  <circle cx="128" cy="120" r="28" fill="none" stroke="#E0E0E0" stroke-width="2" stroke-dasharray="6,3"/>
  
  <!-- Network nodes -->
  <circle cx="108" cy="110" r="6" fill="#E0E0E0"/>
  <circle cx="148" cy="110" r="6" fill="#E0E0E0"/>
  <circle cx="128" cy="140" r="6" fill="#E0E0E0"/>
  <circle cx="108" cy="130" r="6" fill="#E0E0E0"/>
  <circle cx="148" cy="130" r="6" fill="#E0E0E0"/>
  
  <!-- Connection lines -->
  <line x1="108" y1="110" x2="148" y2="110" stroke="#E0E0E0" stroke-width="2"/>
  <line x1="108" y1="110" x2="108" y2="130" stroke="#E0E0E0" stroke-width="2"/>
  <line x1="148" y1="110" x2="148" y2="130" stroke="#E0E0E0" stroke-width="2"/>
  <line x1="108" y1="130" x2="128" y2="140" stroke="#E0E0E0" stroke-width="2"/>
  <line x1="148" y1="130" x2="128" y2="140" stroke="#E0E0E0" stroke-width="2"/>
  
  <!-- Text "MCBA" - smaller for the small icon -->
  <text x="128" y="196" font-family="Arial, sans-serif" font-size="28" font-weight="bold" fill="#E0E0E0" text-anchor="middle">MCBA</text>
</svg> 